<mxfile host="app.diagrams.net" modified="2024-04-24T06:04:52.975Z" agent="Mozilla/5.0 (Windows NT 10.0; Win64; x64) AppleWebKit/537.36 (KHTML, like Gecko) Chrome/124.0.0.0 Safari/537.36" version="24.0.4" etag="c015oqqpyDQQVYo-EFO1" type="github">
  <diagram name="第 1 页" id="91klgLEJPZ_D1Jm_gDZB">
    <mxGraphModel>
      <root>
        <mxCell id="0" />
        <mxCell id="1" parent="0" />
      </root>
    </mxGraphModel>
  </diagram>
</mxfile>
